<?xml version="1.0" encoding="UTF-8"?>
<svg version="1.1" viewBox="0 0 2048 925" width="414" height="187" xmlns="http://www.w3.org/2000/svg">
<path transform="translate(207,343)" d="m0 0h43l22 2 19 5 20 6 19 8 16 9 13 12 8 9 8 13 7 19 2 10v13l-5 5-12 3-44 9-26 5-5-1-7-23-6-10-1-3-4-2-15-6-13-4-6-1h-12l-20 2-16 5-13 7-12 11-8 9-6 13-5 19-4 32v14l3 36 3 20 5 17 9 17 11 12 12 9 13 5 20 4 12 1h11l16-4 10-2 10-4 9-7 4-8 1-5 1-24-1-6-26 1h-31l-3-1-1-2v-57l2-4 2-1 34-1h120l17 1 3 2v62l-13 1h-13v125l-3 3-3 1h-50l-4-8-5-20h-3l-16 12-14 9-17 8-17 5-18 2h-18l-28-2-26-5-15-5-16-8-18-11-10-8-14-14-12-17-9-14-8-19-8-25-4-20-3-28-1-16v-19l3-31 4-21 8-24 9-19 7-11 10-14 12-13 17-13 18-11 23-10 21-5 23-5z" fill="#FEFEFE"/>
<path transform="translate(508,351)" d="m0 0h185l27 2 25 5 17 6 17 9 14 10 10 10 9 13 8 16 6 22 2 17 1 15v12l-2 20-5 19-5 12-7 13-11 13-13 11-15 9-18 8-20 6-18 3-30 2-47 1-1 4-1 48h30l14 1 2 4v60l-3 2h-176l-3-3v-59l3-4 18-1h19v-239h-28l-9-1-2-2-1-5v-56l1-2zm150 69-20 1-2 5v108h44l16-2 12-5 9-7 6-8 4-9 2-9 1-9v-12l-2-17-4-11-8-11-8-6-11-5-9-2-12-1z" fill="#FEFEFE"/>
<path transform="translate(1043,351)" d="m0 0h83l4 2 9 21 29 73 56 140 20 51 7 16 4 2 21 2 4 2v63l-2 1-149 1-4-2v-56l3-9 28-2-1-10-9-23h-118l-7 14-6 19 32 2 2 2v63l-1 1-140 1-5-2v-59l2-6 25-2 5-10 16-44 28-78 17-47 20-56 11-30 14-38zm40 97-5 8-9 27-14 47-7 22v4l4 1h64l4-2-1-7-5-16-18-52-11-30z" fill="#FEFEFE"/>
<path transform="translate(788,93)" d="m0 0h92l14 41 22 64 3 3 3-11 28-83 5-13 1-1h89v32h-20v125l20 1 1 32-1 1h-86l-1-1v-32h19v-83l1-19h-2l-1 6-7 19-21 61-15 43-4 6h-24l-4-8-15-43-27-81-1-1-1 37v63h18l1 1v31l-1 1h-86l-1-4 1-29h20v-126l-4 1h-15l-2-3v-18z" fill="#FEFEFE"/>
<path transform="translate(1441,242)" d="m0 0h11l15 4 45 19 41 17 38 16 39 16 29 13 34 14 86 36 45 19 36 15 43 18 30 13 37 15 13 7 6 5 7 10 5 12 2 9v16l-3 16-5 13-7 12-11 12-8 6-10 5-11 3h-17l-13-4-31-13-40-17-29-12-40-17-48-20-97-41-4-1-2 5-3 4-1 3v93l-4 3-5-1-7-14-11-27-2-7-5 3-13 15-5 6-6 1-2-2-1-4-1-88-8-23-37-15-36-15-39-16-26-11-11-7-8-8-6-10-4-13-1-8v-10l3-17 5-13 6-11 8-10 10-9 16-8zm3 12-13 4-10 6-8 7-9 14-5 12-2 9-1 13 2 14 3 8 6 8 11 7 25 11 29 12 48 20 26 11 7 2 7-15 3-9 3-19 6-16 8-13 9-10 13-8 5-2-1-3-38-16-45-19-26-11-28-12-15-5zm178 73-12 3-10 6-10 9-4 5-7 14-5 15v2h18l13 4 4 1 10-18 8-11 10-9 16-9-4-4-17-7zm42 20-11 4-11 7-11 11-10 19-2 6 10 18 4 14 1 19 8 5 88 37 45 19 36 15 43 18 26 11 12 5-1-7-2-10v-18l4-17 5-12 7-13 9-11 8-6 9-5 1-3-28-11-30-13-41-17-83-35-40-17-25-10-10-3zm-78 44-10 4-5 4-6 11-1 4v14l4 13 8 11 10 8 9 3h10l10-5 7-9 2-7 1-10-3-14-6-12-9-9-10-5zm-13 73v57l5-5 12-14 3-3 4 1 8 16 5 11h1v-53h-10l-12-2-10-5-4-3zm370 1-12 4-11 8-10 14-1 3 16 8 52 23 1 7-5 10-8 9-10 7-11 4-6 1h-9l-12-2-4-1 4 5 10 5 9 2 13-1 12-5 11-9 9-11 7-14 3-12v-23l-4-11-4-6-7-7-12-6-8-2zm-39 40-4 13-1 5v13l3 5 6 5 11 5 15 2 11-2 10-6 8-8 1-5-12-6-20-9-26-12z" fill="#FEFEFE"/>
<path transform="translate(498,93)" d="m0 0h153v60l-1 1h-36v-25l-46 1v32l-1 7h55l1 1v18l-1 18h-54v36l-1 5h49v-27h36l1 1v19l-1 44h-153l-1-1v-31l1-1h20v-126l-8 1h-12l-1-1z" fill="#FEFEFE"/>
<path transform="translate(116,93)" d="m0 0h44l3 4 15 39 12 30 21 53 11 27 2 4 13 1 1 1v31l-1 1h-78l-1-3v-28l1-2h17l-4-11-3-8h-61l-5 15v3l15 1 1 1v31l-1 1h-73l-1-2 1-31 14-1 55-154zm19 48-8 26-9 30 3 1h35l1-2-13-37-6-15z" fill="#FEFEFE"/>
<path transform="translate(1088,93)" d="m0 0h86v32l-5 1h-11l11 18 10 16 6 11h3l2-5 17-29 4-8 1-3-14-1-1-1v-24l1-7h83v28l-1 4-15 2-12 19-16 26-25 40-2 9v29l20 1 1 1v31l-2 1h-88l-1-3v-30l20-1v-35l-9-15-18-27-12-19-11-17-7-10-5-1h-10l-1-2v-30z" fill="#FEFEFE"/>
<path transform="translate(359,89)" d="m0 0h24l22 3 16 6 12 9 8 8 6 10 4 15v9l-2 2-41 10h-4l-3-14-4-8-6-5-9-3-6-1-16 1-10 3-8 6-6 7-5 13-2 14v25l3 19 5 12 4 6 7 6 10 4 5 1h19l11-4 9-7 4-5 3-13 10 2 29 8 5 2-1 7-4 11-6 11-11 12-10 7-12 5-16 4-7 1h-19l-18-2-19-5-12-6-12-9-7-7-7-10-7-14-5-16-3-20v-25l3-18 5-16 7-14 9-11 10-9 13-8 12-5 14-3z" fill="#FEFEFE"/>
<path transform="translate(1587,408)" d="m0 0 10 1 8 4 2 3v5h-8l8 6 1 2v7l-3 5-2 1h-8l-10-5-2-3 1-11-1-3v-7z" fill="#FEFEFE"/>
</svg>
